PathFileType	4	(X/Y/Z)	W10_1_OpenSim.trc																																																																																																																						
DataRate	CameraRate	NumFrames	NumMarkers	Units	OrigDataRate	OrigDataStartFrame	OrigNumFrames																																																																																																																		
100	100	5	40	mm	100	1876	3000																																																																																																																		
Frame#	Time	R.ASIS			R.PSIS			S2			L.PSIS			L.ASIS			R.TH1			R.TH2			R.TH3			R.MKnee			R.Knee			R.SH1			R.SH2			R.SH3			R.SH4			R.Ankle			R.MAnkle			R.Heel			R.MT5			R.MT1			L.TH1			L.TH2			L.TH3			L.TH4			L.MKnee			L.Knee			L.SH1			L.SH2			L.SH3			L.Ankle			L.MAnkle			L.Heel			L.MT5			L.MT1			R.Acr			L.Acr			C7			T10			Clav			Sternum			R.Back		
		X1	Y1	Z1	X2	Y2	Z2	X3	Y3	Z3	X4	Y4	Z4	X5	Y5	Z5	X6	Y6	Z6	X7	Y7	Z7	X8	Y8	Z8	X9	Y9	Z9	X10	Y10	Z10	X11	Y11	Z11	X12	Y12	Z12	X13	Y13	Z13	X14	Y14	Z14	X15	Y15	Z15	X16	Y16	Z16	X17	Y17	Z17	X18	Y18	Z18	X19	Y19	Z19	X20	Y20	Z20	X21	Y21	Z21	X22	Y22	Z22	X23	Y23	Z23	X24	Y24	Z24	X25	Y25	Z25	X26	Y26	Z26	X27	Y27	Z27	X28	Y28	Z28	X29	Y29	Z29	X30	Y30	Z30	X31	Y31	Z31	X32	Y32	Z32	X33	Y33	Z33	X34	Y34	Z34	X35	Y35	Z35	X36	Y36	Z36	X37	Y37	Z37	X38	Y38	Z38	X39	Y39	Z39	X40	Y40	Z40
1876	18.75	984.7163	1059.7273	-385.2085	789.5956	1058.4827	-465.4597	778.3988	1052.0408	-509.837	779.342	1056.5671	-560.1933	949.6317	1044.2935	-679.3124	1031.3398	745.2014	-361.6344	952.2835	720.6833	-353.7787	984.3823	616.3746	-371.3127	1035.1111	510.4155	-500.4141	1042.9425	511.6037	-384.6262	1065.5439	346.2885	-385.8647	1074.6766	235.7849	-406.8525	984.4317	338.2248	-371.4397	998.2125	226.3091	-384.1482	1023.4689	73.7223	-400.6738	1059.4989	94.7063	-493.7199	965.7807	34.5592	-460.4024	1139.7286	38.4883	-374.4755	1189.4172	40.1416	-462.6641	965.184	745.4923	-695.8654	966.1181	636.2434	-695.9947	882.2141	741.1979	-705.6384	886.8307	631.48	-698.4084	950.1365	475.7347	-589.7988	931.3668	493.3602	-701.6558	842.1996	391.8739	-719.4446	789.6059	455.3959	-712.8646	707.636	382.5412	-707.4165	588.9292	213.2275	-713.9283	619.2661	196.1704	-619.1174	522.7372	244.8349	-656.1011	608.5632	96.8778	-730.8257	645.952	78.4052	-629.0751	935.4748	1447.5067	-370.067	902.1636	1435.4348	-696.4464	869.4278	1492.4612	-534.7977	815.9918	1163.5034	-520.9339	995.8203	1385.6587	-540.2966	1019.186	1245.7716	-530.5859	785.8733	1397.6809	-441.6105
1877	18.76	984.6255	1061.2335	-383.6008	789.2424	1059.9075	-463.6825	778.22	1053.3002	-508.0775	778.9204	1057.5924	-558.4258	948.6555	1045.5812	-677.8747	1028.6298	745.405	-360.1936	949.1354	721.8376	-352.3834	979.9737	617.0943	-369.9866	1029.4069	510.6163	-499.3122	1037.1741	511.5419	-383.5096	1058.0765	345.9553	-385.0847	1066.1547	235.4673	-406.3125	976.8776	338.6579	-370.523	989.6244	226.6535	-383.5524	1013.4144	73.7343	-400.5625	1049.4496	94.7622	-493.5523	955.7327	34.5787	-460.334	1129.5543	38.4933	-374.4085	1179.2616	40.2043	-462.6092	970.1225	748.2246	-694.5289	973.8138	639.0625	-694.9306	887.3413	741.8967	-704.0033	894.6906	632.3384	-697.0331	961.5726	478.2732	-588.5165	942.9731	495.752	-700.8369	853.0922	395.478	-718.3204	801.6781	460.0626	-712.1753	718.33	388.7341	-706.6168	596.5372	223.3947	-712.6233	626.2907	204.7129	-617.8271	531.2716	256.9307	-654.5801	612.292	106.2048	-729.8087	649.6169	84.7758	-629.2294	936.29	1448.9515	-368.3072	901.3574	1437.0041	-694.5256	869.4576	1494.0691	-532.6722	815.8658	1165.1346	-518.9071	995.7037	1387.1133	-538.7907	1018.8807	1247.1248	-529.2778	786.3092	1399.2874	-439.0588
1878	18.77	984.4019	1062.7041	-382.0929	788.7867	1061.3815	-462.0118	778.051	1054.6492	-506.4564	778.4449	1058.7413	-556.7703	947.6534	1047.004	-676.4957	1025.7789	745.6392	-358.9741	945.932	723.0046	-350.9872	975.4277	617.8453	-368.6188	1023.3116	510.7471	-498.2532	1031.1035	511.4922	-382.4194	1050.4102	345.6622	-384.3093	1057.4777	235.2163	-405.7813	969.1563	339.0652	-369.5655	980.9306	226.9985	-382.9116	1003.3586	73.7244	-400.4474	1039.4304	94.8128	-493.3371	945.6796	34.608	-460.2554	1119.382	38.4726	-374.3313	1169.1014	40.2486	-462.5562	974.6517	751.2698	-693.2549	981.1193	642.2889	-693.8713	892.1157	742.9241	-702.3416	902.2004	633.5869	-695.563	972.6265	481.2524	-587.1708	954.1422	498.6148	-699.9398	863.7893	399.3124	-717.0865	813.3363	464.7311	-711.2109	728.9052	394.632	-705.5781	604.6036	232.4267	-711.1209	634.1869	212.4023	-616.3882	540.1607	267.0634	-652.6417	617.6737	114.7328	-728.762	655.2521	90.9556	-629.3373	936.9769	1450.4209	-366.6727	900.4021	1438.5868	-692.7341	869.3946	1495.6964	-530.6696	815.6195	1166.791	-516.965	995.4816	1388.5693	-537.397	1018.441	1248.4688	-528.0997	786.6176	1400.9308	-436.6417
1879	18.78	984.0443	1064.1376	-380.6379	788.2411	1062.8901	-460.4592	777.8919	1056.0829	-504.9789	777.9194	1060.0231	-555.2358	946.6987	1048.5865	-675.1194	1022.7713	745.8765	-357.9532	942.6598	724.1733	-349.6126	970.735	618.6181	-367.2472	1016.857	510.8241	-497.2534	1024.741	511.4491	-381.3711	1042.5404	345.4059	-383.5523	1048.6405	235.0211	-405.2655	961.2517	339.4488	-368.6465	972.1088	227.3361	-382.2853	993.3003	73.7105	-400.3431	1029.4344	94.8619	-493.1148	935.6181	34.6478	-460.1772	1109.2144	38.4366	-374.2543	1158.9459	40.2757	-462.5094	978.7686	754.5753	-692.0503	988.0249	645.868	-692.852	896.5303	744.2392	-700.6884	909.3362	635.1823	-694.0693	983.295	484.5819	-585.82	964.8163	501.8648	-699.0073	874.2388	403.274	-715.807	824.4973	469.2743	-709.9731	739.2978	400.0618	-704.293	613.1354	240.0983	-709.4694	642.9121	219.0084	-614.8444	549.3596	275.0707	-650.4003	624.6992	122.1932	-727.7311	662.7939	96.6778	-629.3326	937.5272	1451.9264	-365.1569	899.3276	1440.1892	-691.0629	869.2471	1497.3283	-528.7926	815.2691	1168.4581	-515.103	995.1679	1390.0215	-536.1009	1017.8887	1249.8163	-527.035	786.8042	1402.5927	-434.3661
1880	18.79	983.5539	1065.5248	-379.1999	787.6107	1064.4058	-459.031	777.6998	1057.5814	-503.6346	777.3333	1061.4204	-553.8272	945.84	1050.3248	-673.7106	1019.5638	746.0793	-357.1006	939.2811	725.3284	-348.2945	965.8693	619.3989	-365.9157	1010.0928	510.8665	-496.3237	1018.0942	511.4068	-380.3764	1034.4648	345.1812	-382.8286	1039.6471	234.869	-404.7704	953.1523	339.8084	-367.8244	963.1434	227.6611	-381.7204	983.24	73.7061	-400.2607	1019.4471	94.9135	-492.9182	925.5449	34.6995	-460.1097	1099.0544	38.3938	-374.1895	1148.8007	40.2908	-462.4741	982.4991	758.0858	-690.9253	994.524	649.7377	-691.9116	900.5982	745.7993	-699.0878	916.0806	637.081	-692.6324	993.5759	488.1755	-584.5075	974.9645	505.407	-698.0771	884.4236	407.2397	-714.531	835.1199	473.5513	-708.4919	749.4785	404.8483	-702.7794	622.1835	246.2455	-707.7105	652.4143	224.3585	-613.2272	558.8739	280.9193	-647.9915	633.3116	128.3744	-726.7244	672.0901	101.6713	-629.1599	937.9428	1453.467	-363.7525	898.1696	1441.8052	-689.5004	869.0274	1498.9471	-527.0408	814.8306	1170.1195	-513.3157	994.775	1391.4606	-534.8906	1017.2499	1251.173	-526.0574	786.8807	1404.2534	-432.2314
